<?xml version="1.0" encoding="utf-8"?>
<!-- Generator: Adobe Illustrator 21.0.0, SVG Export Plug-In . SVG Version: 6.00 Build 0)  -->
<svg version="1.1" id="Layer_1" xmlns="http://www.w3.org/2000/svg" xmlns:xlink="http://www.w3.org/1999/xlink" x="0px" y="0px"
	 viewBox="0 0 560 560" style="enable-background:new 0 0 560 560;" xml:space="preserve">
<style type="text/css">
	.st0{fill:#CCCCCC;}
</style>
<g>
	<path class="st0" d="M282.6,175.8c-4.8-31.7,11.2-63.7,34.5-85.8c23.9-22.6,57-37,89.6-32.8c32,4.1,40.9,13.9,59,39.4
		c0.6,0.9,1.8,1.3,2.9,1c18.4-5.6,31.6-8.2,52.3-10c2.1-0.2,3.5,2.1,2.4,4c-7.9,12.6-16.9,21.7-28.4,30.8c-2,1.6-0.7,4.9,1.9,4.6
		c13.7-1.7,26.6-4.1,41.1-6.9c2.3-0.5,4,2.2,2.5,4.1c-10.7,13.7-21.1,25.2-35.9,35c-0.9,0.6-1.4,1.8-1.1,2.8
		c10,36.6,5.6,76.2-7.3,111.9c-13.1,36.3-34.4,69.1-57.6,99.9c-16.2,21.5-33.6,42.4-54.1,60c-54.2,46.5-129.9,66.8-200.1,53.9
		C116.9,475.1,55.6,432,20.7,373c-1.3-2.2,0.9-4.7,3.2-3.7c23.1,10,48.6,14,73.6,17.7c21,3.2,42.3,6.3,63.5,4.4
		c19.7-1.8,39.7-8.4,54.2-21.7c1.4-1.3,0.9-3.7-1-4.3c-37.3-11.9-71.9-32-100.6-58.6c-1.9-1.7-0.4-4.8,2.1-4.4
		c18,2.6,36.5,1.4,53.9-3.6c2.3-0.7,2.5-3.7,0.4-4.8c-45.1-22.6-84.6-56-114.5-96.6c-1.3-1.8,0.1-4.3,2.3-4.1
		c25.9,2.7,52,2.2,77.8-1.3c2.3-0.3,3-3.2,1.2-4.6C99.1,159.2,76.7,111.6,79,64.6c0.1-2.2,2.9-3.3,4.4-1.6
		c53.8,56.6,122.5,99,197.2,121.6c1.9,0.6,3.7-1.2,3.2-3.1C283.7,180,283.4,178.7,282.6,175.8"/>
</g>
</svg>
